<?xml version="1.0" encoding="utf-8"?><svg version="1.1" id="Layer_1" xmlns="http://www.w3.org/2000/svg" xmlns:xlink="http://www.w3.org/1999/xlink" x="0px" y="0px" viewBox="0 0 17.09 32" enable-background="new 0 0 17.09 32" xml:space="preserve"><path d="M16.998,30.237c0.061,0.158,0.093,0.321,0.093,0.491s-0.032,0.334-0.093,0.491c-0.061,0.158-0.15,0.298-0.271,0.418c-0.121,0.122-0.26,0.212-0.417,0.273C16.15,31.97,15.992,32,15.835,32c-0.157,0-0.314-0.03-0.471-0.091c-0.159-0.061-0.298-0.151-0.419-0.273L0.362,16.908c-0.121-0.12-0.212-0.26-0.273-0.417C0.029,16.333,0,16.17,0,16c0-0.169,0.029-0.333,0.089-0.491s0.152-0.297,0.273-0.418L14.944,0.363c0.121-0.12,0.26-0.211,0.419-0.273C15.521,0.03,15.678,0,15.835,0c0.157,0,0.316,0.03,0.475,0.09c0.157,0.062,0.296,0.153,0.417,0.273c0.121,0.122,0.211,0.261,0.271,0.418c0.061,0.158,0.093,0.322,0.093,0.491c0,0.17-0.032,0.334-0.093,0.491s-0.15,0.297-0.271,0.418L3.418,16l13.308,13.819C16.848,29.94,16.937,30.079,16.998,30.237z"/></svg>