<?xml version="1.0" encoding="utf-8"?><svg version="1.1" id="Layer_1" xmlns="http://www.w3.org/2000/svg" xmlns:xlink="http://www.w3.org/1999/xlink" x="0px" y="0px" viewBox="0 0 17.09 32" enable-background="new 0 0 17.09 32" xml:space="preserve"><path d="M0.093,1.763C0.032,1.606,0,1.442,0,1.273c0-0.169,0.032-0.334,0.093-0.491c0.061-0.158,0.15-0.298,0.271-0.418c0.121-0.122,0.26-0.212,0.417-0.273C0.94,0.03,1.099,0,1.256,0C1.413,0,1.57,0.03,1.727,0.091c0.159,0.061,0.298,0.151,0.419,0.273l14.582,14.728c0.121,0.12,0.212,0.26,0.273,0.417C17.062,15.667,17.09,15.83,17.09,16c0,0.169-0.029,0.333-0.089,0.491c-0.061,0.158-0.152,0.297-0.273,0.418L2.146,31.637c-0.121,0.12-0.26,0.211-0.419,0.273C1.57,31.97,1.413,32,1.256,32s-0.316-0.03-0.475-0.09c-0.157-0.062-0.296-0.153-0.417-0.273c-0.121-0.122-0.211-0.261-0.271-0.418C0.032,31.061,0,30.897,0,30.728c0-0.17,0.032-0.334,0.093-0.491s0.15-0.297,0.271-0.418L13.672,16L0.364,2.182C0.243,2.06,0.153,1.921,0.093,1.763z"/></svg>